#!OML:ASF F:\VICON\USERDATA\INSTALL\rory3\rory3.ASF
:FULLY-SPECIFIED
:DEGREES
277
root 1.31182 17.8208 -17.4184 1.45621 -1.37371 -0.74537
lowerback 5.65015 0.0555765 -0.805819
upperback -0.318517 0.104334 2.40736
thorax -3.5053 0.0886648 2.93244
lowerneck -18.5282 -4.06124 -9.84341
upperneck 16.0802 -4.29904 7.14063
head 8.42439 -1.91607 3.48135
rclavicle 8.10048e-015 2.78299e-014
rhumerus -32.9659 -9.71047 -79.6455
rradius 37.3514
rwrist 4.08317
rhand -13.0614 12.7211
rfingers 7.12502
rthumb 13.034 -16.8517
lclavicle 8.10048e-015 2.78299e-014
lhumerus -32.1689 9.39889 81.9928
lradius 32.34
lwrist -5.96103
lhand -16.7201 21.199
lfingers 7.12502
lthumb 9.50546 50.9646
rfemur -5.94282 4.25796 20.917
rtibia 18.635
rfoot -9.0118 -8.66759
rtoes 2.9833
lfemur -6.88017 -2.67139 -20.4095
ltibia 19.9642
lfoot -11.2189 4.62255
ltoes 3.10356
278
root 1.31059 17.8184 -17.4189 1.36302 -1.35031 -0.742419
lowerback 5.81363 0.0488083 -0.790061
upperback -0.33295 0.0967698 2.39074
thorax -3.61174 0.085628 2.90787
lowerneck -18.6302 -4.05818 -9.78726
upperneck 16.163 -4.29475 7.09589
head 8.46745 -1.91372 3.45763
rclavicle 9.59136e-015 1.27222e-014
rhumerus -33.0089 -9.66542 -79.7111
rradius 37.3788
rwrist 4.09148
rhand -13.0035 12.7518
rfingers 7.12502
rthumb 13.0898 -16.8174
lclavicle 9.59136e-015 1.27222e-014
lhumerus -32.1831 8.53741 82.4279
lradius 33.4576
lwrist -5.91578
lhand -14.8344 29.5157
lfingers 7.12502
lthumb 11.3245 59.19
rfemur -5.87629 4.16033 20.9239
rtibia 18.6074
rfoot -8.93753 -8.63907
rtoes 2.30219
lfemur -6.7663 -2.73442 -20.4017
ltibia 19.9409
lfoot -11.2551 4.61419
ltoes 3.25363
279
root 1.30986 17.8183 -17.4192 1.32457 -1.40801 -0.671903
lowerback 5.87201 0.0861792 -0.816281
upperback -0.327226 0.142986 2.33699
thorax -3.64115 0.108844 2.86296
lowerneck -18.781 -4.07705 -9.69962
upperneck 16.2892 -4.31941 7.01624
head 8.53494 -1.92598 3.41296
rclavicle 1.78906e-015 3.33958e-014
rhumerus -33.0168 -9.67794 -79.7858
rradius 37.383
rwrist 4.22163
rhand -13.0513 12.448
rfingers 7.12502
rthumb 13.0437 -17.1241
lclavicle 1.78906e-015 3.33958e-014
lhumerus -32.0343 7.62662 82.8972
lradius 34.032
lwrist -4.47486
lhand -14.8558 31.3645
lfingers 7.12502
lthumb 11.3038 61.0399
rfemur -5.82894 4.05741 20.8295
rtibia 18.5758
rfoot -8.95249 -8.47234
rtoes 1.95431
lfemur -6.68519 -2.86615 -20.4829
ltibia 19.9352
lfoot -11.3175 4.78089
ltoes 3.22061
280
root 1.30866 17.8172 -17.4175 1.25765 -1.4858 -0.600519
lowerback 5.87314 0.122701 -0.908176
upperback -0.274489 0.184466 2.33785
thorax -3.58984 0.130249 2.91177
lowerneck -18.8814 -4.10509 -9.77253
upperneck 16.3493 -4.33812 7.0546
head 8.57733 -1.93394 3.43574
rclavicle -3.62782e-015 7.95139e-016
rhumerus -32.9202 -9.65878 -79.7928
rradius 37.3173
rwrist 4.28173
rhand -13.1225 12.4391
rfingers 7.12502
rthumb 12.9751 -17.1374
lclavicle -3.62782e-015 7.95139e-016
lhumerus -31.8021 7.19675 83.222
lradius 34.2563
lwrist -4.35296
lhand -14.1564 32.5112
lfingers 7.12502
lthumb 11.9783 62.1485
rfemur -5.73812 3.91016 20.7393
rtibia 18.5623
rfoot -9.084 -8.27274
rtoes 1.99573
lfemur -6.57238 -2.8774 -20.5658
ltibia 19.8938
lfoot -11.3401 4.88614
ltoes 3.15424
281
root 1.30752 17.8151 -17.4139 1.18165 -1.52198 -0.600466
lowerback 5.92251 0.101967 -0.944511
upperback -0.233224 0.155533 2.38746
thorax -3.57355 0.116437 2.98643
lowerneck -19.049 -4.10877 -9.90987
upperneck 16.4122 -4.29997 7.10204
head 8.62901 -1.91711 3.47964
rclavicle 3.23025e-015 -1.35174e-014
rhumerus -32.7673 -9.54098 -79.8001
rradius 37.2057
rwrist 4.26586
rhand -13.0479 12.5749
rfingers 7.12502
rthumb 13.047 -16.997
lclavicle 3.23025e-015 -1.35174e-014
lhumerus -31.7002 7.05324 83.4449
lradius 34.2056
lwrist -4.97076
lhand -14.2894 32.0978
lfingers 7.12502
lthumb 11.85 61.7425
rfemur -5.6375 3.78873 20.741
rtibia 18.5281
rfoot -9.14533 -8.14352
rtoes 1.64936
lfemur -6.48549 -2.80135 -20.5771
ltibia 19.8674
lfoot -11.3618 4.89492
ltoes 2.48447
282
root 1.30883 17.8169 -17.4077 1.13727 -1.54011 -0.537055
lowerback 5.9154 0.0756211 -0.958111
upperback -0.181553 0.118108 2.37364
thorax -3.51381 0.0968127 2.98273
lowerneck -19.3396 -4.09572 -9.92075
upperneck 16.5251 -4.24825 7.07393
head 8.71328 -1.89178 3.47846
rclavicle 1.04859e-014 2.70347e-014
rhumerus -32.5993 -9.50918 -79.8352
rradius 37.0562
rwrist 4.33806
rhand -12.9829 12.5767
rfingers 7.12502
rthumb 13.1097 -16.9913
lclavicle 1.04859e-014 2.70347e-014
lhumerus -31.6761 6.83566 83.6484
lradius 34.1519
lwrist -5.67993
lhand -14.9928 31.3463
lfingers 7.12502
lthumb 11.1716 61.0289
rfemur -5.50349 3.64224 20.6462
rtibia 18.4017
rfoot -9.14071 -7.971
rtoes 1.61424
lfemur -6.47549 -2.66617 -20.6749
ltibia 19.9067
lfoot -11.3246 4.88926
ltoes 1.57242
283
root 1.30551 17.8172 -17.4028 1.07392 -1.50668 -0.568666
lowerback 5.92599 0.0584855 -0.890746
upperback -0.147849 0.0984426 2.34472
thorax -3.48345 0.0849324 2.91619
lowerneck -19.434 -4.08589 -9.85741
upperneck 16.5411 -4.24777 7.09077
head 8.73411 -1.88402 3.47368
rclavicle 3.3048e-015 3.18055e-015
rhumerus -32.5734 -9.5852 -79.9069
rradius 36.9674
rwrist 4.41372
rhand -12.9249 12.837
rfingers 7.12502
rthumb 13.1656 -16.7273
lclavicle 3.3048e-015 3.18055e-015
lhumerus -31.7158 6.64767 83.7011
lradius 34.2795
lwrist -6.6811
lhand -14.922 30.412
lfingers 7.12502
lthumb 11.24 60.0909
rfemur -5.31525 3.72807 20.6847
rtibia 18.2588
rfoot -9.05549 -7.99379
rtoes 2.25494
lfemur -6.42437 -2.61092 -20.6353
ltibia 19.9351
lfoot -11.2781 4.82655
ltoes 1.45043
284
root 1.29968 17.8166 -17.3996 1.01794 -1.36264 -0.697267
lowerback 5.93463 -0.00208741 -0.792261
upperback -0.0974862 0.0252907 2.38834
thorax -3.43195 0.0462071 2.91204
lowerneck -19.5238 -4.08506 -9.87986
upperneck 16.5314 -4.2383 7.12738
head 8.74706 -1.87538 3.4908
rclavicle -4.96962e-017 -8.74653e-015
rhumerus -32.4907 -9.7766 -79.8897
rradius 36.8316
rwrist 4.57805
rhand -12.9039 13.2816
rfingers 7.12502
rthumb 13.1858 -16.2815
lclavicle -4.96962e-017 -8.74653e-015
lhumerus -31.5929 6.4192 83.8306
lradius 34.3647
lwrist -7.12483
lhand -14.5257 29.6541
lfingers 7.12502
lthumb 11.6222 59.3118
rfemur -5.17719 3.84592 20.8665
rtibia 18.1706
rfoot -9.00428 -8.20936
rtoes 2.36886
lfemur -6.37824 -2.67217 -20.4568
ltibia 19.9255
lfoot -11.2399 4.69971
ltoes 1.69935
285
root 1.29734 17.8163 -17.3983 1.00135 -1.26318 -0.694184
lowerback 5.90499 -0.067536 -0.802893
upperback -0.0797287 -0.0626454 2.40308
thorax -3.39192 0.00218342 2.94074
lowerneck -19.4724 -4.05475 -9.89401
upperneck 16.4752 -4.1952 7.1279
head 8.71518 -1.85657 3.49881
rclavicle 1.51573e-014 4.77083e-015
rhumerus -32.4432 -9.90377 -79.875
rradius 36.6582
rwrist 4.77714
rhand -13.074 13.3169
rfingers 7.12502
rthumb 13.0218 -16.2566
lclavicle 1.51573e-014 4.77083e-015
lhumerus -31.4707 6.19264 84.0092
lradius 34.2865
lwrist -7.27908
lhand -13.9004 30.7314
lfingers 7.12502
lthumb 12.2251 60.3541
rfemur -5.14 3.77986 20.8792
rtibia 18.1441
rfoot -8.98007 -8.25913
rtoes 1.98261
lfemur -6.33732 -2.71526 -20.4283
ltibia 19.8913
lfoot -11.2472 4.59922
ltoes 2.07383
286
root 1.29901 17.8126 -17.397 0.987035 -1.27705 -0.663629
lowerback 5.8654 -0.0785387 -0.796341
upperback -0.102165 -0.0771252 2.39025
thorax -3.39206 -0.00504675 2.92483
lowerneck -19.1915 -4.02522 -9.90732
upperneck 16.3361 -4.17539 7.13899
head 8.61726 -1.85125 3.50727
rclavicle 1.59525e-014 -1.59028e-015
rhumerus -32.5579 -9.93799 -79.8581
rradius 36.6218
rwrist 4.85212
rhand -13.1957 13.0691
rfingers 7.12502
rthumb 12.9046 -16.5119
lclavicle 1.59525e-014 -1.59028e-015
lhumerus -31.5047 6.06792 84.0785
lradius 34.4309
lwrist -8.50505
lhand -11.7544 33.4925
lfingers 7.12502
lthumb 14.2936 62.9805
rfemur -5.13419 3.66093 20.8286
rtibia 18.164
rfoot -9.00343 -8.12225
rtoes 2.0252
lfemur -6.20311 -2.77566 -20.4535
ltibia 19.8635
lfoot -11.3506 4.58152
ltoes 3.19312
287
root 1.29763 17.8116 -17.394 0.984165 -1.33873 -0.59519
lowerback 5.87474 -0.0565052 -0.913448
upperback -0.163006 -0.054468 2.40059
thorax -3.46152 0.00962921 3.00032
lowerneck -18.9911 -3.95886 -9.94929
upperneck 16.1646 -4.10081 7.21579
head 8.51961 -1.81339 3.54974
rclavicle 6.70898e-016 2.14687e-014
rhumerus -32.7391 -9.99774 -79.7743
rradius 36.6491
rwrist 4.86177
rhand -13.1211 12.6978
rfingers 7.12502
rthumb 12.9764 -16.8786
lclavicle 6.70898e-016 2.14687e-014
lhumerus -31.6631 5.55045 84.4568
lradius 34.2249
lwrist -7.06527
lhand -14.3341 30.645
lfingers 7.12502
lthumb 11.807 60.2922
rfemur -5.1692 3.6605 20.7556
rtibia 18.2526
rfoot -9.08977 -8.10047
rtoes 2.08107
lfemur -6.0764 -2.8348 -20.5297
ltibia 19.8173
lfoot -11.471 4.64955
ltoes 3.55956
